<?xml version="1.0" standalone="no"?>
<!DOCTYPE svg PUBLIC "-//W3C//DTD SVG 20010904//EN"
 "http://www.w3.org/TR/2001/REC-SVG-20010904/DTD/svg10.dtd">
<svg version="1.0" xmlns="http://www.w3.org/2000/svg"
 width="800.000000pt" height="800.000000pt" viewBox="0 0 800.000000 800.000000"
 preserveAspectRatio="xMidYMid meet">
<metadata>
Created by potrace 1.16, written by Peter Selinger 2001-2019
</metadata>
<g transform="translate(0.000000,800.000000) scale(0.100000,-0.100000)"
fill="#514e46" stroke="none">
<path d="M940 6740 c-118 -14 -215 -65 -300 -156 -58 -62 -82 -103 -112 -184
l-23 -65 -3 -1292 -3 -1293 251 0 250 0 2 1138 3 1137 1435 -993 c789 -546
1450 -1000 1469 -1008 41 -17 140 -18 178 -2 23 10 2703 1858 2866 1975 l47
35 0 -1891 0 -1891 -1250 0 -1250 0 0 -250 0 -251 1293 3 c1149 3 1297 5 1337
19 182 64 306 194 352 366 19 70 19 4156 0 4226 -46 172 -169 301 -352 366
-41 15 -325 16 -3085 17 -1672 1 -3069 -2 -3105 -6z m5505 -499 c-6 -5 -558
-388 -1227 -850 l-1218 -842 -47 32 c-224 153 -2390 1653 -2397 1660 -6 5
1000 9 2444 9 1431 0 2450 -4 2445 -9z"/>
<path d="M1125 2620 l-620 -620 623 -622 622 -623 172 173 173 172 -450 450
-450 450 450 450 450 450 -170 170 c-93 93 -172 170 -175 170 -3 0 -284 -279
-625 -620z"/>
<path d="M2875 2620 l-620 -620 623 -622 622 -623 172 173 173 172 -450 450
-450 450 450 450 450 450 -170 170 c-93 93 -172 170 -175 170 -3 0 -284 -279
-625 -620z"/>
</g>
</svg>
